<?xml version="1.0" encoding="utf-8"?>
<!-- Generator: Adobe Illustrator 21.0.0, SVG Export Plug-In . SVG Version: 6.00 Build 0)  -->
<svg version="1.1" id="图层_1" xmlns="http://www.w3.org/2000/svg" xmlns:xlink="http://www.w3.org/1999/xlink" x="0px" y="0px"
	 viewBox="0 0 96 96" style="enable-background:new 0 0 96 96;" xml:space="preserve">
<style type="text/css">
	.st0{display:none;fill:#FFFFFF;stroke:#231815;stroke-miterlimit:10;}
	.st1{fill:none;stroke:#00B2D7;stroke-width:4;stroke-miterlimit:10;}
</style>
<path class="st0" d="M47.4,53.5c-1-1.4-2.1-2.4-3.3-3s-2.6-1-4.2-1c-2.5,0-4.5,0.9-6.3,2.7c-1.7,1.8-2.6,4-2.6,6.5
	c0,2.7,0.9,4.9,2.6,6.7c1.7,1.8,3.8,2.7,6.3,2.7c1.5,0,2.9-0.3,4.1-1c1.2-0.6,2.3-1.6,3.2-2.8h2.6c-1,1.9-2.4,3.3-4.1,4.4
	c-1.7,1-3.6,1.5-5.7,1.5c-3.2,0-5.9-1.1-8.1-3.3c-2.2-2.2-3.2-5-3.2-8.3c0-1.5,0.3-3,0.9-4.4s1.4-2.6,2.6-3.7c1-1,2.2-1.8,3.5-2.4
	c1.3-0.5,2.7-0.8,4.2-0.8c2.2,0,4.2,0.5,5.9,1.6c1.8,1.1,3.1,2.6,4.2,4.5h-2.6V53.5z"/>
<path class="st1" d="M81.8,38.8L52.7,21.5c-1.5-0.9-3.3-0.9-4.8,0L18.4,39.3"/>
<path class="st1" d="M57.1,50.6v22.2h10c2.1,0,3.8-2.1,3.8-4.8l0,0V42.3"/>
<path class="st1" d="M28.8,42.3V68c0,2.7,1.6,4.8,3.8,4.8l14.2-0.3c-3,0-5.5-1.3-7.5-3.9s-3-5.8-3-9.7c0-1.8,0.2-3.5,0.8-5.2
	c0.5-1.6,1.3-3.1,2.4-4.4c0.9-1.2,2-2.2,3.3-2.8c1.2-0.6,2.5-1,3.9-1c0,0,10.4,0,10.4,0h6.7"/>
</svg>
