<?xml version="1.0" encoding="utf-8"?>
<!-- Generator: Adobe Illustrator 21.0.0, SVG Export Plug-In . SVG Version: 6.00 Build 0)  -->
<svg version="1.1" id="图层_1" xmlns="http://www.w3.org/2000/svg" xmlns:xlink="http://www.w3.org/1999/xlink" x="0px" y="0px"
	 viewBox="0 0 96 96" style="enable-background:new 0 0 96 96;" xml:space="preserve">
<style type="text/css">
	.st0{fill:#1296DB;stroke:#FFFFFF;stroke-width:0.75;stroke-miterlimit:10;}
	.st1{display:none;fill:#FFFFFF;}
	.st2{fill:#FFFFFF;}
</style>
<path class="st0" d="M78.2,30.8l-2.5-1.5V18.2c0-2.7-2.1-4.8-4.8-4.8l0,0h-8.3c-2.7,0-4.8,2.1-4.8,4.8l0,0v0.7l-8.2-4.7
	c-1.5-0.9-3.3-0.9-4.8,0L16.2,30.8c-1.5,0.9-2.4,2.4-2.4,4.2v33c0,2.7,2.1,4.8,4.8,4.8l0,0h57.2c2.7,0,4.8-2.1,4.8-4.8l0,0v-33
	C80.6,33.2,79.7,31.6,78.2,30.8z"/>
<g>
	<g>
		<path class="st1" d="M48.4,53.5c-1-1.4-2.1-2.4-3.3-3c-1.2-0.6-2.6-1-4.2-1c-2.5,0-4.5,0.9-6.3,2.7c-1.7,1.8-2.6,4-2.6,6.5
			c0,2.7,0.9,4.9,2.6,6.7c1.7,1.8,3.8,2.7,6.3,2.7c1.5,0,2.9-0.3,4.1-1c1.2-0.6,2.3-1.6,3.2-2.8h2.6c-1,1.9-2.4,3.3-4.1,4.4
			c-1.7,1-3.6,1.5-5.7,1.5c-3.2,0-5.9-1.1-8.1-3.3c-2.2-2.2-3.2-5-3.2-8.3c0-1.5,0.3-3,0.9-4.4c0.6-1.4,1.4-2.6,2.6-3.7
			c1-1,2.2-1.8,3.5-2.4c1.3-0.5,2.7-0.8,4.2-0.8c2.2,0,4.2,0.5,5.9,1.6c1.8,1.1,3.1,2.6,4.2,4.5H48.4z"/>
		<path class="st2" d="M41,70.2c-3.8,0-7-1.3-9.5-3.9c-2.5-2.6-3.8-5.8-3.8-9.7c0-1.8,0.3-3.5,1-5.2c0.7-1.6,1.7-3.1,3-4.4
			c1.2-1.2,2.6-2.2,4.2-2.8c1.5-0.6,3.2-1,5-1c2.6,0,4.9,0.6,7,1.9c2.1,1.3,3.5,2.7,4.9,5.3c0.5,1,0.9,2.9,0.9,2.9h-6.3l-0.6-0.8
			c-0.8-1.1-1.7-1.9-2.6-2.4c-0.9-0.5-2-0.7-3.2-0.7c-1.9,0-3.5,0.7-4.8,2.1C34.6,53,34,54.7,34,56.7c0,2.2,0.7,3.9,2,5.4
			c1.3,1.4,2.9,2.1,4.9,2.1c1.2,0,2.3-0.2,3.2-0.7c1-0.5,1.8-1.2,2.5-2.2l0.6-0.8h6.5c0,0-0.3,1.4-1.1,2.9c-0.8,1.6-2.8,3.9-4.8,5.1
			C45.8,69.6,43.5,70.2,41,70.2z"/>
	</g>
	<g>
		<path class="st2" d="M62.4,67.8h-2.2V45.6h2.2V67.8z"/>
		<rect x="58.3" y="43.6" class="st2" width="6.2" height="26.2"/>
	</g>
</g>
</svg>
